<svg width="70" height="70" viewBox="0 0 70 70" fill="none" xmlns="http://www.w3.org/2000/svg">
<g clip-path="url(#clip0_1_6)">
<path d="M35.7 72.2C30.5667 72.2 26.0333 71.3333 22.1 69.6C18.1667 67.8 15.0667 65.2667 12.8 62C10.5333 58.6667 9.36667 54.6333 9.3 49.9H22.8C22.9333 53.1667 24.1 55.9333 26.3 58.2C28.5667 60.4 31.6667 61.5 35.6 61.5C39 61.5 41.7 60.7 43.7 59.1C45.7 57.4333 46.7 55.2333 46.7 52.5C46.7 49.6333 45.8 47.4 44 45.8C42.2667 44.2 39.9333 42.9 37 41.9C34.0667 40.9 30.9333 39.8333 27.6 38.7C22.2 36.8333 18.0667 34.4333 15.2 31.5C12.4 28.5667 11 24.6667 11 19.8C10.9333 15.6667 11.9 12.1333 13.9 9.2C15.9667 6.2 18.7667 3.9 22.3 2.3C25.8333 0.633331 29.9 -0.200001 34.5 -0.200001C39.1667 -0.200001 43.2667 0.633331 46.8 2.3C50.4 3.96666 53.2 6.29999 55.2 9.3C57.2667 12.3 58.3667 15.8667 58.5 20H44.8C44.7333 17.5333 43.7667 15.3667 41.9 13.5C40.1 11.5667 37.5667 10.6 34.3 10.6C31.5 10.5333 29.1333 11.2333 27.2 12.7C25.3333 14.1 24.4 16.1667 24.4 18.9C24.4 21.2333 25.1333 23.1 26.6 24.5C28.0667 25.8333 30.0667 26.9667 32.6 27.9C35.1333 28.8333 38.0333 29.8333 41.3 30.9C44.7667 32.1 47.9333 33.5 50.8 35.1C53.6667 36.7 55.9667 38.8333 57.7 41.5C59.4333 44.1 60.3 47.4667 60.3 51.6C60.3 55.2667 59.3667 58.6667 57.5 61.8C55.6333 64.9333 52.8667 67.4667 49.2 69.4C45.5333 71.2667 41.0333 72.2 35.7 72.2Z" fill="white"/>
<path d="M22.1 69.6L21.2678 71.4186L21.2806 71.4245L21.2935 71.4302L22.1 69.6ZM12.8 62L11.1461 63.1246L11.1514 63.1324L11.1568 63.1402L12.8 62ZM9.3 49.9V47.9H7.27163L7.3002 49.9282L9.3 49.9ZM22.8 49.9L24.7983 49.8184L24.72 47.9H22.8V49.9ZM26.3 58.2L24.8648 59.5929L24.8856 59.6144L24.9071 59.6352L26.3 58.2ZM43.7 59.1L44.9494 60.6617L44.965 60.6492L44.9804 60.6364L43.7 59.1ZM44 45.8L42.6434 47.2696L42.6572 47.2823L42.6713 47.2948L44 45.8ZM37 41.9L36.3547 43.793L37 41.9ZM27.6 38.7L26.9466 40.5903L26.9562 40.5935L27.6 38.7ZM15.2 31.5L13.7533 32.881L13.7614 32.8895L13.7696 32.8979L15.2 31.5ZM11 19.8H13V19.7839L12.9997 19.7677L11 19.8ZM13.9 9.2L12.253 8.06537L12.2475 8.07332L13.9 9.2ZM22.3 2.3L23.125 4.12191L23.1392 4.11549L23.1532 4.10886L22.3 2.3ZM46.8 2.3L45.9468 4.10886L45.9532 4.11192L45.9598 4.11493L46.8 2.3ZM55.2 9.3L53.5359 10.4094L53.5443 10.4221L53.553 10.4346L55.2 9.3ZM58.5 20V22H60.5656L60.499 19.9355L58.5 20ZM44.8 20L42.8007 20.054L42.8533 22H44.8V20ZM41.9 13.5L40.4362 14.8628L40.4605 14.889L40.4858 14.9142L41.9 13.5ZM34.3 10.6L34.2524 12.5994L34.2762 12.6H34.3V10.6ZM27.2 12.7L28.4 14.3L28.4088 14.2934L27.2 12.7ZM26.6 24.5L25.219 25.9467L25.2367 25.9635L25.2547 25.9799L26.6 24.5ZM32.6 27.9L33.2914 26.0233L32.6 27.9ZM41.3 30.9L41.9542 29.01L41.9376 29.0043L41.9208 28.9988L41.3 30.9ZM50.8 35.1L51.7747 33.3536L50.8 35.1ZM57.7 41.5L56.0231 42.59L56.0294 42.5997L56.0359 42.6094L57.7 41.5ZM57.5 61.8L59.2182 62.8236H59.2182L57.5 61.8ZM49.2 69.4L50.1074 71.1823L50.1201 71.1758L50.1328 71.1691L49.2 69.4ZM35.7 70.2C30.7913 70.2 26.5413 69.3716 22.9065 67.7698L21.2935 71.4302C25.5254 73.2951 30.342 74.2 35.7 74.2V70.2ZM22.9322 67.7814C19.2956 66.1171 16.4875 63.806 14.4432 60.8598L11.1568 63.1402C13.6459 66.7273 17.0378 69.4829 21.2678 71.4186L22.9322 67.7814ZM14.4539 60.8754C12.4435 57.919 11.3619 54.2834 11.2998 49.8718L7.3002 49.9282C7.3714 54.9833 8.62318 59.4144 11.1461 63.1246L14.4539 60.8754ZM9.3 51.9H22.8V47.9H9.3V51.9ZM20.8017 49.9816C20.9543 53.7208 22.3093 56.9599 24.8648 59.5929L27.7352 56.807C25.8907 54.9067 24.9124 52.6125 24.7983 49.8184L20.8017 49.9816ZM24.9071 59.6352C27.6333 62.2812 31.2808 63.5 35.6 63.5V59.5C32.0525 59.5 29.5 58.5188 27.693 56.7648L24.9071 59.6352ZM35.6 63.5C39.305 63.5 42.4936 62.6263 44.9494 60.6617L42.4506 57.5383C40.9064 58.7737 38.695 59.5 35.6 59.5V63.5ZM44.9804 60.6364C47.4618 58.5686 48.7 55.7929 48.7 52.5H44.7C44.7 54.6738 43.9382 56.2981 42.4196 57.5636L44.9804 60.6364ZM48.7 52.5C48.7 49.181 47.6372 46.3571 45.3287 44.3052L42.6713 47.2948C43.9628 48.4428 44.7 50.0857 44.7 52.5H48.7ZM45.3566 44.3304C43.3647 42.4918 40.7637 41.0701 37.6454 40.007L36.3547 43.793C39.103 44.7299 41.1686 45.9082 42.6434 47.2696L45.3566 44.3304ZM37.6454 40.007C34.7114 39.0068 31.5776 37.9399 28.2438 36.8064L26.9562 40.5935C30.2891 41.7267 33.4219 42.7932 36.3547 43.793L37.6454 40.007ZM28.2534 36.8097C23.0385 35.007 19.2117 32.7434 16.6304 30.1021L13.7696 32.8979C16.9217 36.1232 21.3615 38.6596 26.9466 40.5902L28.2534 36.8097ZM16.6467 30.119C14.2708 27.63 13 24.2617 13 19.8H9C9 25.0716 10.5292 29.5033 13.7533 32.881L16.6467 30.119ZM12.9997 19.7677C12.9386 15.9774 13.8216 12.8652 15.5525 10.3267L12.2475 8.07332C9.97838 11.4014 8.92806 15.356 9.00026 19.8323L12.9997 19.7677ZM15.547 10.3346C17.3938 7.65376 19.9008 5.58194 23.125 4.12191L21.475 0.478088C17.6326 2.21805 14.5395 4.74623 12.253 8.06539L15.547 10.3346ZM23.1532 4.10886C26.3765 2.58847 30.1431 1.8 34.5 1.8V-2.2C29.6569 -2.2 25.2902 -1.32181 21.4468 0.491133L23.1532 4.10886ZM34.5 1.8C38.9283 1.8 42.7272 2.59018 45.9468 4.10886L47.6532 0.491133C43.8062 -1.32352 39.405 -2.2 34.5 -2.2V1.8ZM45.9598 4.11493C49.26 5.64283 51.7605 7.74623 53.5359 10.4094L56.8641 8.19059C54.6395 4.85376 51.54 2.2905 47.6402 0.485062L45.9598 4.11493ZM53.553 10.4346C55.3739 13.0778 56.3783 16.261 56.501 20.0645L60.499 19.9355C60.355 15.4724 59.1595 11.5222 56.847 8.16539L53.553 10.4346ZM58.5 18H44.8V22H58.5V18ZM46.7993 19.946C46.7178 16.9298 45.515 14.2866 43.3142 12.0858L40.4858 14.9142C42.0183 16.4468 42.7489 18.1368 42.8007 20.054L46.7993 19.946ZM43.3638 12.1372C41.0991 9.70471 37.981 8.6 34.3 8.6V12.6C37.1523 12.6 39.1009 13.4286 40.4362 14.8628L43.3638 12.1372ZM34.3476 8.60056C31.1681 8.52486 28.3396 9.32509 25.9912 11.1066L28.4088 14.2934C29.9271 13.1416 31.8319 12.5418 34.2524 12.5994L34.3476 8.60056ZM26 11.1C23.5394 12.9455 22.4 15.6594 22.4 18.9H26.4C26.4 16.6739 27.1273 15.2545 28.4 14.3L26 11.1ZM22.4 18.9C22.4 21.6899 23.2963 24.1114 25.219 25.9467L27.981 23.0533C26.9704 22.0886 26.4 20.7768 26.4 18.9H22.4ZM25.2547 25.9799C26.9671 27.5367 29.2157 28.7846 31.9086 29.7767L33.2914 26.0233C30.9176 25.1488 29.1662 24.13 27.9453 23.0201L25.2547 25.9799ZM31.9086 29.7767C34.4706 30.7206 37.3949 31.7288 40.6792 32.8012L41.9208 28.9988C38.6718 27.9379 35.7961 26.9461 33.2914 26.0233L31.9086 29.7767ZM40.6458 32.79C44.0143 33.956 47.0721 35.3098 49.8253 36.8464L51.7747 33.3536C48.7945 31.6902 45.519 30.244 41.9542 29.01L40.6458 32.79ZM49.8253 36.8464C52.4175 38.2932 54.4728 40.2049 56.0231 42.59L59.3769 40.41C57.4605 37.4618 54.9158 35.1068 51.7747 33.3536L49.8253 36.8464ZM56.0359 42.6094C57.4898 44.7902 58.3 47.7363 58.3 51.6H62.3C62.3 47.1971 61.3769 43.4098 59.3641 40.3906L56.0359 42.6094ZM58.3 51.6C58.3 54.9083 57.463 57.9544 55.7818 60.7764L59.2182 62.8236C61.2703 59.379 62.3 55.625 62.3 51.6H58.3ZM55.7818 60.7764C54.128 63.5523 51.6539 65.8451 48.2672 67.6309L50.1328 71.1691C54.0794 69.0882 57.1386 66.3143 59.2182 62.8236L55.7818 60.7764ZM48.2926 67.6177C44.9778 69.3053 40.8083 70.2 35.7 70.2V74.2C41.2584 74.2 46.0889 73.2281 50.1074 71.1823L48.2926 67.6177Z" fill="white"/>
</g>
<rect x="1.5" y="1.5" width="67" height="67" rx="11.5" stroke="white" stroke-width="3"/>
<defs>
<clipPath id="clip0_1_6">
<rect x="3" y="3" width="64" height="64" rx="10" fill="white"/>
</clipPath>
</defs>
</svg>
